<?xml version="1.0" encoding="UTF-8" standalone="no"?>
<!-- Created with Inkscape (http://www.inkscape.org/) -->

<svg
   xmlns:dc="http://purl.org/dc/elements/1.1/"
   xmlns:cc="http://creativecommons.org/ns#"
   xmlns:rdf="http://www.w3.org/1999/02/22-rdf-syntax-ns#"
   xmlns:svg="http://www.w3.org/2000/svg"
   xmlns="http://www.w3.org/2000/svg"
   xmlns:sodipodi="http://sodipodi.sourceforge.net/DTD/sodipodi-0.dtd"
   xmlns:inkscape="http://www.inkscape.org/namespaces/inkscape"
   width="39.432335mm"
   height="31.255123mm"
   viewBox="0 0 139.72087 110.7465"
   id="svg12507"
   version="1.1"
   inkscape:version="0.91 r13725"
   sodipodi:docname="simple_lstm.svg">
  <defs
     id="defs12509">
    <clipPath
       clipPathUnits="userSpaceOnUse"
       id="clipPath7176">
      <path
         d="M 0,0 217,0 217,172 0,172 0,0 Z"
         id="path7178"
         inkscape:connector-curvature="0" />
    </clipPath>
  </defs>
  <sodipodi:namedview
     id="base"
     pagecolor="#ffffff"
     bordercolor="#666666"
     borderopacity="1.0"
     inkscape:pageopacity="0.0"
     inkscape:pageshadow="2"
     inkscape:zoom="1.979899"
     inkscape:cx="134.21517"
     inkscape:cy="22.305841"
     inkscape:document-units="px"
     inkscape:current-layer="layer1"
     showgrid="false"
     fit-margin-top="0"
     fit-margin-left="0"
     fit-margin-right="0"
     fit-margin-bottom="0"
     inkscape:window-width="1680"
     inkscape:window-height="1013"
     inkscape:window-x="1920"
     inkscape:window-y="0"
     inkscape:window-maximized="1" />
  <metadata
     id="metadata12512">
    <rdf:RDF>
      <cc:Work
         rdf:about="">
        <dc:format>image/svg+xml</dc:format>
        <dc:type
           rdf:resource="http://purl.org/dc/dcmitype/StillImage" />
        <dc:title></dc:title>
      </cc:Work>
    </rdf:RDF>
  </metadata>
  <g
     inkscape:label="Layer 1"
     inkscape:groupmode="layer"
     id="layer1"
     transform="translate(-275.85389,-322.70324)">
    <g
       id="g7168"
       transform="matrix(0.643875,0,0,-0.643875,275.85389,433.44974)">
      <g
         id="g7170">
        <g
           id="g7172">
          <g
             id="g7174"
             clip-path="url(#clipPath7176)">
            <g
               id="g7180"
               transform="scale(0.1,0.1)">
              <path
                 d="m 0,0 5874.39,0 0,1884.81 L 0,1884.81 0,0 Z"
                 style="fill:#ffffff;fill-opacity:1;fill-rule:evenodd;stroke:none"
                 id="path7182"
                 inkscape:connector-curvature="0" />
              <g
                 id="g7184"
                 transform="scale(10,10)">
                <text
                   transform="matrix(1,0,0,-1,2.43906,9.44102)"
                   style="font-variant:normal;font-weight:normal;font-size:18px;font-family:'Comic Sans MS';-inkscape-font-specification:ComicSansMS;writing-mode:lr-tb;fill:#000000;fill-opacity:1;fill-rule:nonzero;stroke:none"
                   id="text7186">
                  <tspan
                     x="0 29.031839 38.636127 48.118309 57.600487 75.833244 86.50853 95.859741 130.43738"
                     y="0"
                     sodipodi:role="line"
                     id="tspan7188">Agoodbuy!</tspan>
                </text>
              </g>
              <path
                 d="m 1341.99,263.609 2.4,525.602 14.4,0 -1.2,-525.602 -15.6,0 z m -32.4,469.2 42,70.8 40.8,-70.8 c 2.4,-3.598 1.2,-8.399 -2.4,-10.801 -3.6,-2.399 -8.4,-1.199 -10.8,2.402 l -34.8,60 13.2,0 -34.8,-58.801 c -2.4,-3.601 -7.2,-4.8 -10.8,-3.601 -3.6,2.402 -4.8,7.203 -2.4,10.801"
                 style="fill:#000000;fill-opacity:1;fill-rule:nonzero;stroke:none"
                 id="path7190"
                 inkscape:connector-curvature="0" />
              <path
                 d="m 921.992,263.609 2.399,525.602 14.398,0 -1.199,-525.602 -15.598,0 z m -32.402,469.2 42,70.8 40.801,-70.8 c 2.398,-3.598 1.199,-8.399 -2.399,-10.801 -3.601,-2.399 -8.402,-1.199 -10.801,2.402 l -34.8,60 13.199,0 -34.801,-58.801 c -2.398,-3.601 -7.199,-4.8 -10.797,-3.601 -3.601,2.402 -4.801,7.203 -2.402,10.801"
                 style="fill:#000000;fill-opacity:1;fill-rule:nonzero;stroke:none"
                 id="path7192"
                 inkscape:connector-curvature="0" />
              <path
                 d="m 501.992,263.609 2.399,525.602 14.398,0 -1.199,-525.602 -15.598,0 z m -32.402,469.2 42,70.8 40.801,-70.8 c 2.398,-3.598 1.199,-8.399 -2.399,-10.801 -3.601,-2.399 -8.402,-1.199 -10.801,2.402 l -34.8,60 13.199,0 -34.801,-58.801 c -2.398,-3.601 -7.199,-4.8 -10.797,-3.601 -3.601,2.402 -4.801,7.203 -2.402,10.801"
                 style="fill:#000000;fill-opacity:1;fill-rule:nonzero;stroke:none"
                 id="path7194"
                 inkscape:connector-curvature="0" />
              <path
                 d="m 150.391,872.008 285.601,-1.199 0,-15.598 -285.601,1.199 0,15.598 z m 229.199,32.402 70.801,-42 -70.801,-40.801 c -3.598,-2.398 -8.399,-1.199 -10.801,2.399 -1.199,3.601 0,8.402 3.602,10.801 l 60,34.8 0,-13.199 -60,36 c -3.602,1.199 -4.801,6 -2.399,9.598 1.199,3.601 6,4.801 9.598,2.402"
                 style="fill:#000000;fill-opacity:1;fill-rule:nonzero;stroke:none"
                 id="path7196"
                 inkscape:connector-curvature="0" />
              <path
                 d="m 570.391,872.008 285.601,-1.199 0,-15.598 -285.601,1.199 0,15.598 z m 229.199,32.402 70.801,-42 -70.801,-40.801 c -3.598,-2.398 -8.399,-1.199 -10.801,2.399 -1.199,3.601 0,8.402 3.602,10.801 l 60,34.8 0,-13.199 -60,36 c -3.602,1.199 -4.801,6 -2.399,9.598 1.199,3.601 6,4.801 9.598,2.402"
                 style="fill:#000000;fill-opacity:1;fill-rule:nonzero;stroke:none"
                 id="path7198"
                 inkscape:connector-curvature="0" />
              <path
                 d="m 990.391,872.008 285.599,-1.199 0,-15.598 -285.599,1.199 0,15.598 z m 229.199,32.402 70.8,-42 -70.8,-40.801 c -3.6,-2.398 -8.4,-1.199 -10.8,2.399 -1.2,3.601 0,8.402 3.6,10.801 l 60,34.8 0,-13.199 -60,36 c -3.6,1.199 -4.8,6 -2.4,9.598 1.2,3.601 6,4.801 9.6,2.402"
                 style="fill:#000000;fill-opacity:1;fill-rule:nonzero;stroke:none"
                 id="path7200"
                 inkscape:connector-curvature="0" />
              <path
                 d="m 25.5898,1404.81 c 0,2.4 2.4024,4.8 4.8008,4.8 l 1379.9994,0 c 3.6,0 4.8,-2.4 4.8,-4.8 l 0,-188.4 c 0,-2.4 -1.2,-4.8 -4.8,-4.8 l -1379.9994,0 c -2.3984,0 -4.8008,2.4 -4.8008,4.8 l 0,188.4 z m 9.6016,-188.4 -4.8008,4.8 1379.9994,0 -4.8,-4.8 0,188.4 4.8,-6 -1379.9994,0 4.8008,6"
                 style="fill:#000000;fill-opacity:1;fill-rule:nonzero;stroke:none"
                 id="path7202"
                 inkscape:connector-curvature="0" />
              <g
                 id="g7204"
                 transform="scale(10,10)">
                <text
                   transform="matrix(1,0,0,-1,37.7191,125.601)"
                   style="font-variant:normal;font-weight:normal;font-size:18px;font-family:'Times New Roman';-inkscape-font-specification:TimesNewRoman;writing-mode:lr-tb;fill:#000000;fill-opacity:1;fill-rule:nonzero;stroke:none"
                   id="text7206">
                  <tspan
                     x="0 9.8428822 18.834093 27.842882 32.162884 37.20591 45.248646 54.488651 62.531387"
                     y="0"
                     sodipodi:role="line"
                     id="tspan7208">Top layer</tspan>
                </text>
              </g>
              <path
                 d="m 711.992,1403.61 1.199,112.8 15.598,0 -1.199,-112.8 -15.598,0 z m -32.402,57.6 42,70.8 40.801,-72 c 1.199,-3.6 0,-8.4 -3.602,-9.6 -3.598,-2.4 -7.199,-1.2 -9.598,2.4 l -34.8,60 13.199,0 -36,-60 c -1.199,-2.4 -6,-3.6 -9.598,-2.4 -3.601,2.4 -4.801,7.2 -2.402,10.8"
                 style="fill:#000000;fill-opacity:1;fill-rule:nonzero;stroke:none"
                 id="path7210"
                 inkscape:connector-curvature="0" />
              <g
                 id="g7212"
                 transform="scale(10,10)">
                <text
                   transform="matrix(1,0,0,-1,39.5191,158.001)"
                   style="font-variant:normal;font-weight:normal;font-size:18px;font-family:'Comic Sans MS';-inkscape-font-specification:ComicSansMS;writing-mode:lr-tb;fill:#000000;fill-opacity:1;fill-rule:nonzero;stroke:none"
                   id="text7214">
                  <tspan
                     x="0 9.6059761 19.088156 27.851458 32.886539 41.403095 46.438168 55.192261"
                     y="0"
                     sodipodi:role="line"
                     id="tspan7216">positive</tspan>
                </text>
              </g>
              <path
                 d="m 83.1914,264.809 0,524.402 15.5977,0 0,-524.402 -15.5977,0 z m -33.6016,468 40.8008,72 42.0004,-72 c 2.398,-3.598 1.199,-8.399 -2.399,-9.598 -3.601,-2.402 -8.402,-1.203 -10.801,2.398 l -34.8004,60 13.1992,0 -36,-60 c -1.1992,-3.601 -6,-4.8 -9.5976,-2.398 -3.6016,1.199 -4.8008,6 -2.4024,9.598"
                 style="fill:#000000;fill-opacity:1;fill-rule:nonzero;stroke:none"
                 id="path7218"
                 inkscape:connector-curvature="0" />
              <path
                 d="m 30.3906,864.809 c 0,32.402 27.6016,60 60,60 l 0,0 0,0 c 33.6014,0 60.0004,-27.598 60.0004,-60 l 0,0 0,0 c 0,-33.598 -26.399,-60 -60.0004,-60 l 0,0 0,0 c -32.3984,0 -60,26.402 -60,60 l 0,0"
                 style="fill:#e6e0ec;fill-opacity:1;fill-rule:evenodd;stroke:none"
                 id="path7220"
                 inkscape:connector-curvature="0" />
              <path
                 d="m 25.5898,863.609 0,7.2 1.1993,6 1.2031,6 2.3984,6 3.6016,6 2.3984,6 c 0,0 0,0 1.1992,0 l 7.1993,8.402 c 0,1.199 0,1.199 0,1.199 l 9.6015,7.199 c 0,0 0,0 0,1.2 l 4.8008,2.402 6,2.398 6,2.399 6,2.402 7.1992,0 6,1.199 7.1992,-1.199 6.0002,0 6,-2.402 6,-1.199 6,-3.598 4.801,-2.402 c 1.199,-1.2 1.199,-1.2 1.199,-1.2 l 8.402,-7.199 c 1.199,0 1.199,0 1.199,-1.199 l 7.2,-8.402 0,0 3.601,-4.801 2.399,-6 2.398,-6 1.203,-6 1.199,-7.199 0,-13.2 -1.199,-6 -1.203,-6 -2.398,-6 -2.399,-6 -3.601,-6 -7.2,-8.398 c 0,-1.203 0,-1.203 -1.199,-1.203 l -8.402,-7.199 -6,-3.598 -4.801,-2.402 -6,-2.399 -7.199,-2.402 -6.0002,0 -7.1992,-1.199 -6,1.199 -6,0 -7.1992,2.402 -6,2.399 -4.8008,2.402 -6,3.598 -9.6015,7.199 c 0,0 0,0 0,1.203 l -7.1993,8.398 -3.5976,6 -3.6016,4.801 -1.1992,6 -2.4023,6 -1.1993,7.199 0,6 z m 10.8008,-4.8 0,-4.801 1.1992,-6 2.4024,-4.797 2.3984,-4.801 2.3985,-4.801 7.2031,-8.398 0,0 8.3984,-6 3.6016,-3.602 4.7969,-2.398 4.8007,-1.203 6,-1.199 4.8008,-1.2 12,0 4.8004,1.2 6,1.199 4.801,1.203 4.797,2.398 4.801,2.399 8.402,7.203 -1.203,0 7.203,8.398 2.399,4.801 2.398,4.801 2.402,4.797 1.2,4.801 1.199,6 0,10.8 -1.199,6 -1.2,4.801 -1.199,4.801 -2.402,4.797 -3.598,4.801 0,0 -7.203,8.402 1.203,0 -8.402,7.199 0,-1.199 -4.801,3.598 -4.797,2.402 -4.801,1.199 -4.8,1.199 -6.0004,1.2 -10.8008,0 -6,-1.2 -4.8007,-1.199 -4.7969,-1.199 -4.8008,-2.402 -4.8008,-3.598 0,1.199 -8.3984,-7.199 0,0 -7.2031,-8.402 0,0 -2.3985,-3.598 -2.3984,-4.801 -1.2031,-6 -2.3985,-4.801 0,-6 -1.1992,-4.8"
                 style="fill:#000000;fill-opacity:1;fill-rule:nonzero;stroke:none"
                 id="path7222"
                 inkscape:connector-curvature="0" />
              <path
                 d="m 450.391,864.809 c 0,32.402 27.601,60 60,60 l 0,0 0,0 c 33.601,0 60,-27.598 60,-60 l 0,0 0,0 c 0,-33.598 -26.399,-60 -60,-60 l 0,0 0,0 c -32.399,0 -60,26.402 -60,60 l 0,0"
                 style="fill:#e6e0ec;fill-opacity:1;fill-rule:evenodd;stroke:none"
                 id="path7224"
                 inkscape:connector-curvature="0" />
              <path
                 d="m 445.59,863.609 0,7.2 1.199,6 1.203,6 2.399,6 3.601,6 2.399,6 c 0,0 0,0 1.199,0 l 7.199,8.402 c 0,1.199 0,1.199 0,1.199 l 9.602,7.199 c 0,0 0,0 0,1.2 l 4.8,2.402 6,2.398 6,2.399 6,2.402 7.2,0 6,1.199 7.199,-1.199 6,0 6,-2.402 6,-1.199 6,-3.598 4.801,-2.402 c 1.199,-1.2 1.199,-1.2 1.199,-1.2 l 8.402,-7.199 c 1.199,0 1.199,0 1.199,-1.199 l 7.2,-8.402 0,0 3.601,-4.801 2.399,-6 2.398,-6 1.203,-6 1.199,-7.199 0,-13.2 -1.199,-6 -1.203,-6 -2.398,-6 -2.399,-6 -3.601,-6 -7.2,-8.398 c 0,-1.203 0,-1.203 -1.199,-1.203 l -8.402,-7.199 -6,-3.598 -4.801,-2.402 -6,-2.399 -7.199,-2.402 -6,0 -7.199,-1.199 -6,1.199 -6,0 -7.2,2.402 -6,2.399 -4.8,2.402 -6,3.598 -9.602,7.199 c 0,0 0,0 0,1.203 l -7.199,8.398 -3.598,6 -3.601,4.801 -1.2,6 -2.402,6 -1.199,7.199 0,6 z m 10.801,-4.8 0,-4.801 1.199,-6 2.402,-4.797 2.399,-4.801 2.398,-4.801 7.203,-8.398 0,0 8.399,-6 3.601,-3.602 4.797,-2.398 4.801,-1.203 6,-1.199 4.801,-1.2 12,0 4.8,1.2 6,1.199 4.801,1.203 4.797,2.398 4.801,2.399 8.402,7.203 -1.203,0 7.203,8.398 2.399,4.801 2.398,4.801 2.402,4.797 1.2,4.801 1.199,6 0,10.8 -1.199,6 -1.2,4.801 -1.199,4.801 -2.402,4.797 -3.598,4.801 0,0 -7.203,8.402 1.203,0 -8.402,7.199 0,-1.199 -4.801,3.598 -4.797,2.402 -4.801,1.199 -4.8,1.199 -6,1.2 -10.801,0 -6,-1.2 -4.801,-1.199 -4.797,-1.199 -4.801,-2.402 -4.8,-3.598 0,1.199 -8.399,-7.199 0,0 -7.203,-8.402 0,0 -2.398,-3.598 -2.399,-4.801 -1.203,-6 -2.398,-4.801 0,-6 -1.2,-4.8"
                 style="fill:#000000;fill-opacity:1;fill-rule:nonzero;stroke:none"
                 id="path7226"
                 inkscape:connector-curvature="0" />
              <path
                 d="m 870.391,864.809 c 0,32.402 27.601,60 60,60 l 0,0 0,0 c 33.601,0 60,-27.598 60,-60 l 0,0 0,0 c 0,-33.598 -26.399,-60 -60,-60 l 0,0 0,0 c -32.399,0 -60,26.402 -60,60 l 0,0"
                 style="fill:#e6e0ec;fill-opacity:1;fill-rule:evenodd;stroke:none"
                 id="path7228"
                 inkscape:connector-curvature="0" />
              <path
                 d="m 865.59,863.609 0,7.2 1.199,6 1.203,6 2.399,6 3.601,6 2.399,6 c 0,0 0,0 1.199,0 l 7.199,8.402 c 0,1.199 0,1.199 0,1.199 l 9.602,7.199 c 0,0 0,0 0,1.2 l 4.8,2.402 6,2.398 6,2.399 6,2.402 7.2,0 6,1.199 7.199,-1.199 6,0 6,-2.402 6,-1.199 6,-3.598 4.801,-2.402 c 1.199,-1.2 1.199,-1.2 1.199,-1.2 l 8.402,-7.199 c 1.199,0 1.199,0 1.199,-1.199 l 7.2,-8.402 0,0 3.601,-4.801 2.399,-6 2.398,-6 1.203,-6 1.199,-7.199 0,-13.2 -1.199,-6 -1.203,-6 -2.398,-6 -2.399,-6 -3.601,-6 -7.2,-8.398 c 0,-1.203 0,-1.203 -1.199,-1.203 l -8.402,-7.199 -6,-3.598 -4.801,-2.402 -6,-2.399 -7.199,-2.402 -6,0 -7.199,-1.199 -6,1.199 -6,0 -7.2,2.402 -6,2.399 -4.8,2.402 -6,3.598 -9.602,7.199 c 0,0 0,0 0,1.203 l -7.199,8.398 -3.598,6 -3.601,4.801 -1.2,6 -2.402,6 -1.199,7.199 0,6 z m 10.801,-4.8 0,-4.801 1.199,-6 2.402,-4.797 2.399,-4.801 2.398,-4.801 7.203,-8.398 0,0 8.399,-6 3.601,-3.602 4.797,-2.398 4.801,-1.203 6,-1.199 4.801,-1.2 12,0 4.8,1.2 6,1.199 4.801,1.203 4.797,2.398 4.801,2.399 8.402,7.203 -1.203,0 7.203,8.398 2.399,4.801 2.398,4.801 2.402,4.797 1.2,4.801 1.199,6 0,10.8 -1.199,6 -1.2,4.801 -1.199,4.801 -2.402,4.797 -3.598,4.801 0,0 -7.203,8.402 1.203,0 -8.402,7.199 0,-1.199 -4.801,3.598 -4.797,2.402 -4.801,1.199 -4.8,1.199 -6,1.2 -10.801,0 -6,-1.2 -4.801,-1.199 -4.797,-1.199 -4.801,-2.402 -4.8,-3.598 0,1.199 -8.399,-7.199 0,0 -7.203,-8.402 0,0 -2.398,-3.598 -2.399,-4.801 -1.203,-6 -2.398,-4.801 0,-6 -1.2,-4.8"
                 style="fill:#000000;fill-opacity:1;fill-rule:nonzero;stroke:none"
                 id="path7230"
                 inkscape:connector-curvature="0" />
              <path
                 d="m 1290.39,864.809 c 0,32.402 27.6,60 60,60 l 0,0 0,0 c 33.6,0 60,-27.598 60,-60 l 0,0 0,0 c 0,-33.598 -26.4,-60 -60,-60 l 0,0 0,0 c -32.4,0 -60,26.402 -60,60 l 0,0"
                 style="fill:#e6e0ec;fill-opacity:1;fill-rule:evenodd;stroke:none"
                 id="path7232"
                 inkscape:connector-curvature="0" />
              <path
                 d="m 1285.59,863.609 0,7.2 1.2,6 1.2,6 2.4,6 3.6,6 2.4,6 c 0,0 0,0 1.2,0 l 7.2,8.402 c 0,1.199 0,1.199 0,1.199 l 9.6,7.199 c 0,0 0,0 0,1.2 l 4.8,2.402 6,2.398 6,2.399 6,2.402 7.2,0 6,1.199 7.2,-1.199 6,0 6,-2.402 6,-1.199 6,-3.598 4.8,-2.402 c 1.2,-1.2 1.2,-1.2 1.2,-1.2 l 8.4,-7.199 c 1.2,0 1.2,0 1.2,-1.199 l 7.2,-8.402 0,0 3.6,-4.801 2.4,-6 2.4,-6 1.2,-6 1.2,-7.199 0,-13.2 -1.2,-6 -1.2,-6 -2.4,-6 -2.4,-6 -3.6,-6 -7.2,-8.398 c 0,-1.203 0,-1.203 -1.2,-1.203 l -8.4,-7.199 -6,-3.598 -4.8,-2.402 -6,-2.399 -7.2,-2.402 -6,0 -7.2,-1.199 -6,1.199 -6,0 -7.2,2.402 -6,2.399 -4.8,2.402 -6,3.598 -9.6,7.199 c 0,0 0,0 0,1.203 l -7.2,8.398 -3.6,6 -3.6,4.801 -1.2,6 -2.4,6 -1.2,7.199 0,6 z m 10.8,-4.8 0,-4.801 1.2,-6 2.4,-4.797 2.4,-4.801 2.4,-4.801 7.2,-8.398 0,0 8.4,-6 3.6,-3.602 4.8,-2.398 4.8,-1.203 6,-1.199 4.8,-1.2 12,0 4.8,1.2 6,1.199 4.8,1.203 4.8,2.398 4.8,2.399 8.4,7.203 -1.2,0 7.2,8.398 2.4,4.801 2.4,4.801 2.4,4.797 1.2,4.801 1.2,6 0,10.8 -1.2,6 -1.2,4.801 -1.2,4.801 -2.4,4.797 -3.6,4.801 0,0 -7.2,8.402 1.2,0 -8.4,7.199 0,-1.199 -4.8,3.598 -4.8,2.402 -4.8,1.199 -4.8,1.199 -6,1.2 -10.8,0 -6,-1.2 -4.8,-1.199 -4.8,-1.199 -4.8,-2.402 -4.8,-3.598 0,1.199 -8.4,-7.199 0,0 -7.2,-8.402 0,0 -2.4,-3.598 -2.4,-4.801 -1.2,-6 -2.4,-4.801 0,-6 -1.2,-4.8"
                 style="fill:#000000;fill-opacity:1;fill-rule:nonzero;stroke:none"
                 id="path7234"
                 inkscape:connector-curvature="0" />
              <g
                 id="g7236"
                 transform="scale(10,10)">
                <text
                   transform="matrix(1,0,0,-1,156.399,17.6008)"
                   style="font-variant:normal;font-weight:normal;font-size:18px;font-family:'Times New Roman';-inkscape-font-specification:TimesNewRoman;writing-mode:lr-tb;fill:#000000;fill-opacity:1;fill-rule:nonzero;stroke:none"
                   id="text7238">
                  <tspan
                     x="0 12.956974 21.956974 29.999718 35.999577 44.999577 53.999577 59.042591"
                     y="0"
                     sodipodi:role="line"
                     id="tspan7240">One-hot</tspan>
                  <tspan
                     x="3.4796901 12.47969 20.522434 28.565166 33.608192 42.608192 48.608051"
                     y="15"
                     sodipodi:role="line"
                     id="tspan7242">vectors</tspan>
                  <tspan
                     x="5.5199199 16.562805 26.520061 37.562946"
                     y="-60"
                     sodipodi:role="line"
                     id="tspan7244">LSTM</tspan>
                </text>
              </g>
              <path
                 d="m 1343.19,924.809 0,145.201 7.2,-7.2 -629.999,0 c -3.602,0 -7.2,3.6 -7.2,7.2 l 0,132 15.598,0 0,-132 -8.398,8.4 629.999,0 c 4.8,0 8.4,-3.6 8.4,-8.4 l 0,-145.201 -15.6,0 z m -663.6,220.801 40.801,70.8 42,-70.8 c 2.398,-3.6 1.199,-8.4 -2.399,-10.8 -3.601,-1.2 -8.402,0 -10.801,2.4 l -34.8,60 13.199,0 -36,-60 c -1.199,-2.4 -6,-3.6 -9.598,-2.4 -3.601,2.4 -4.801,7.2 -2.402,10.8"
                 style="fill:#000000;fill-opacity:1;fill-rule:nonzero;stroke:none"
                 id="path7246"
                 inkscape:connector-curvature="0" />
              <path
                 d="m 30.3906,444.809 1380,0 0,180 -1380,0 0,-180 z"
                 style="fill:#ffffff;fill-opacity:1;fill-rule:evenodd;stroke:none"
                 id="path7248"
                 inkscape:connector-curvature="0" />
              <path
                 d="m 25.5898,624.809 c 0,2.402 2.4024,4.8 4.8008,4.8 l 1379.9994,0 c 3.6,0 4.8,-2.398 4.8,-4.8 l 0,-180 c 0,-3.598 -1.2,-6 -4.8,-6 l -1379.9994,0 c -2.3984,0 -4.8008,2.402 -4.8008,6 l 0,180 z m 9.6016,-180 -4.8008,4.8 1379.9994,0 -4.8,-4.8 0,180 4.8,-6 -1379.9994,0 4.8008,6"
                 style="fill:#000000;fill-opacity:1;fill-rule:nonzero;stroke:none"
                 id="path7250"
                 inkscape:connector-curvature="0" />
              <g
                 id="g7252"
                 transform="scale(10,10)">
                <text
                   transform="matrix(1,0,0,-1,9.99922,46.8809)"
                   style="font-variant:normal;font-weight:normal;font-size:18px;font-family:'Times New Roman';-inkscape-font-specification:TimesNewRoman;writing-mode:lr-tb;fill:#000000;fill-opacity:1;fill-rule:nonzero;stroke:none"
                   id="text7254">
                  <tspan
                     x="0 15.482743 24.482742 30.482603 39.482601 43.9226 51.965343 65.879578 74.888359 82.931107 91.931107 100.93111 105.97414 114.97414 123.97414"
                     y="0"
                     sodipodi:role="line"
                     id="tspan7256">Word embedding</tspan>
                </text>
              </g>
              <path
                 d="m 1341.99,263.609 1.2,165.602 15.6,0 -1.2,-165.602 -15.6,0 z m -32.4,109.2 42,70.8 40.8,-70.8 c 2.4,-3.598 1.2,-8.399 -2.4,-10.801 -3.6,-2.399 -8.4,-1.199 -10.8,2.402 l -34.8,61.199 13.2,-1.199 -34.8,-58.801 c -2.4,-3.601 -7.2,-4.8 -10.8,-3.601 -3.6,2.402 -4.8,7.203 -2.4,10.801"
                 style="fill:#000000;fill-opacity:1;fill-rule:nonzero;stroke:none"
                 id="path7258"
                 inkscape:connector-curvature="0" />
              <path
                 d="m 921.992,263.609 1.199,165.602 15.598,0 -1.199,-165.602 -15.598,0 z m -32.402,109.2 42,70.8 40.801,-70.8 c 2.398,-3.598 1.199,-8.399 -2.399,-10.801 -3.601,-2.399 -8.402,-1.199 -10.801,2.402 l -34.8,61.199 13.199,-1.199 -34.801,-58.801 c -2.398,-3.601 -7.199,-4.8 -10.797,-3.601 -3.601,2.402 -4.801,7.203 -2.402,10.801"
                 style="fill:#000000;fill-opacity:1;fill-rule:nonzero;stroke:none"
                 id="path7260"
                 inkscape:connector-curvature="0" />
              <path
                 d="m 501.992,263.609 1.199,165.602 15.598,0 -1.199,-165.602 -15.598,0 z m -32.402,109.2 42,70.8 40.801,-70.8 c 2.398,-3.598 1.199,-8.399 -2.399,-10.801 -3.601,-2.399 -8.402,-1.199 -10.801,2.402 l -34.8,61.199 13.199,-1.199 -34.801,-58.801 c -2.398,-3.601 -7.199,-4.8 -10.797,-3.601 -3.601,2.402 -4.801,7.203 -2.402,10.801"
                 style="fill:#000000;fill-opacity:1;fill-rule:nonzero;stroke:none"
                 id="path7262"
                 inkscape:connector-curvature="0" />
              <path
                 d="m 83.1914,264.809 0,164.402 15.5977,0 0,-164.402 -15.5977,0 z m -33.6016,108 40.8008,72 42.0004,-72 c 2.398,-3.598 1.199,-8.399 -2.399,-9.598 -3.601,-2.402 -8.402,-1.203 -10.801,2.398 l -34.8004,60 13.1992,0 -36,-60 c -1.1992,-3.601 -6,-4.8 -9.5976,-2.398 -3.6016,1.199 -4.8008,6 -2.4024,9.598"
                 style="fill:#000000;fill-opacity:1;fill-rule:nonzero;stroke:none"
                 id="path7264"
                 inkscape:connector-curvature="0" />
            </g>
          </g>
        </g>
      </g>
    </g>
  </g>
</svg>
